<svg width="16" height="16" viewBox="0 0 16 16" fill="none" xmlns="http://www.w3.org/2000/svg">
<rect width="16" height="16"/>
<path d="M6.5 8.5C7.60457 8.5 8.5 7.60457 8.5 6.5C8.5 5.39543 7.60457 4.5 6.5 4.5C5.39543 4.5 4.5 5.39543 4.5 6.5C4.5 7.60457 5.39543 8.5 6.5 8.5Z" fill="white"/>
<path d="M7 0H6V2.5H7V0Z" fill="white"/>
<path d="M7 10.5H6V13H7V10.5Z" fill="white"/>
<path d="M2.5498 7.05005V6.05005L0.0498047 6.05005V7.05005H2.5498Z" fill="white"/>
<path d="M13.0498 6.94995V5.94995L10.5498 5.94995V6.94995H13.0498Z" fill="white"/>
<path d="M1.78092 1.09005L1.14453 1.72644L3.26583 3.84774L3.90222 3.21135L1.78092 1.09005Z" fill="white"/>
<path d="M3.23458 9.13456L1.11328 11.2559L1.74969 11.8923L3.87099 9.77097L3.23458 9.13456Z" fill="white"/>
<path d="M11.2356 1.09354L9.11426 3.21484L9.75067 3.85125L11.872 1.72995L11.2356 1.09354Z" fill="white"/>
<path fill-rule="evenodd" clip-rule="evenodd" d="M10.5954 13.974C10.5954 12.0846 12.1233 10.5451 14.0243 10.5451C14.5841 10.5451 15.109 10.6967 15.5755 10.93C15.004 9.822 13.8727 9.06392 12.5431 9.06392C10.6538 9.06392 9.11426 10.5918 9.11426 12.4928C9.11426 13.8224 9.884 14.9653 10.9803 15.5251C10.7354 15.0586 10.5954 14.5338 10.5954 13.974Z" fill="white"/>
<path opacity="0.5" fill-rule="evenodd" clip-rule="evenodd" d="M10.5947 13.974C10.5947 14.5338 10.7463 15.0586 10.9796 15.5251C11.4461 15.77 11.9709 15.91 12.5308 15.91C14.4201 15.91 15.9596 14.3822 15.9596 12.4811C15.9596 11.9213 15.808 11.3965 15.5748 10.93C15.1082 10.685 14.5834 10.5451 14.0236 10.5451C12.1342 10.5451 10.5947 12.0729 10.5947 13.974Z" fill="white"/>
</svg>
